<svg
  id="aig-logo"
  class="aig-logo"
  xmlns="http://www.w3.org/2000/svg"
  viewBox="0 0 213.5 108"
>
                <path
    d="M51.6 40.4l9 20.6H42.2l9.4-20.6zM50 23.7L21.8 84.3h9.9l6.8-14.7h26l6.4 14.7h10L53.5 23.7H50zm49.4 57v-57h-9.2v60.6h9.2v-3.6zm48-19.3h15.1c-.4 4.3-2.4 7.9-6 11-3.6 3-7.6 4.5-12.1 4.5-5.3 0-10.2-2-14.7-6.1-4.8-4.4-7.3-9.9-7.3-16.7 0-6.5 2.2-12 6.5-16.3 4.3-4.4 9.7-6.6 16.1-6.6 7.1 0 13.2 3.3 18.2 9.9l6.5-6.2c-3.8-4.3-7.7-7.5-11.6-9.4-4.1-1.9-8.5-2.9-13.3-2.9-8.8 0-16.3 3.1-22.5 9.2-6.2 6.1-9.2 13.6-9.2 22.4 0 8.6 3 16 9.1 22.1 6 6.1 13.3 9.2 21.8 9.2 8.7 0 15.8-3.2 21.5-9.5 2.5-2.8 4.3-5.9 5.3-9.1 1.1-3.5 1.6-7.5 1.6-12.1v-2h-25.1v8.6zM8.3 8.3h183.1v91.3H8.3V8.3zM0 108h199.7V0H0v108zm209.2-8.6c2.3 0 4.2 1.8 4.2 4.2 0 2.4-1.9 4.3-4.2 4.3-2.3 0-4.3-1.8-4.3-4.3.1-2.4 2-4.2 4.3-4.2m0 7.8c2 0 3.5-1.6 3.5-3.6s-1.5-3.6-3.5-3.6-3.5 1.6-3.5 3.6c0 2.1 1.5 3.6 3.5 3.6m-1.6-6h1.9c1.2 0 1.7.5 1.7 1.4 0 .9-.6 1.3-1.3 1.3l1.4 2.2h-.8l-1.4-2.1h-.8v2.1h-.8v-4.9zm.7 2.1h.8c.7 0 1.3 0 1.3-.8 0-.7-.6-.8-1.1-.8h-1v1.6z"
  />
              </svg>
