<?xml version="1.0" encoding="UTF-8"?>
<svg width="33px" height="32px" viewBox="0 0 33 32" version="1.1" xmlns="http://www.w3.org/2000/svg" xmlns:xlink="http://www.w3.org/1999/xlink">
    <title>Visit my Codepen</title>
    <g id="Page-1" stroke="none" stroke-width="1" fill="none" fill-rule="evenodd">
        <g id="Visit-my-Codepen">
            <path d="M16.2587956,0 C7.27956838,0 0,7.09831624 0,15.8547718 C0,24.6112944 7.27956838,31.7092755 16.2587956,31.7092755 C25.2385727,31.7092755 32.5177974,24.6112944 32.5177974,15.8547718 C32.5177974,7.09831624 25.2385727,0 16.2587956,0 Z" id="bg" fill="#191919"></path>
            <g id="codepen-logo" transform="translate(6.000000, 6.000000)" fill="#FFFFFE">
                <path d="M10.4798623,18.6555259 C5.65026447,18.6555259 1.72120915,14.8454029 1.72120915,10.1622864 C1.72120915,5.47921331 5.65026447,1.66904696 10.4798623,1.66904696 C15.3092815,1.66904696 19.2383368,5.47921331 19.2383368,10.1622864 C19.2383368,14.8454029 15.3092815,18.6555259 10.4798623,18.6555259 M10.4798623,8.66537717e-06 C4.69186021,8.66537717e-06 1.34042553e-05,4.54972162 1.34042553e-05,10.1622864 C1.34042553e-05,15.7748945 4.69186021,20.3244342 10.4798623,20.3244342 C16.2676857,20.3244342 20.9595326,15.7748945 20.9595326,10.1622864 C20.9595326,4.54972162 16.2676857,8.66537717e-06 10.4798623,8.66537717e-06" id="Fill-2"></path>
                <path d="M15.8458181,11.0659986 L14.4526691,10.1622864 L15.8458181,9.25861756 L15.8458181,11.0659986 Z M11.036684,14.8966152 L11.036684,12.3778934 L13.4510138,10.8121464 L15.3999479,12.0760783 L11.036684,14.8966152 Z M10.4798713,11.439823 L8.51016064,10.1622864 L10.4798713,8.88474986 L12.4494032,10.1622864 L10.4798713,11.439823 Z M9.92287979,14.8966152 L5.55957128,12.0760783 L7.50868404,10.8121464 L9.92287979,12.3778934 L9.92287979,14.8966152 Z M5.11374574,9.25861756 L6.50702872,10.1622864 L5.11374574,11.0659986 L5.11374574,9.25861756 Z M9.92287979,5.4279576 L9.92287979,7.94667946 L7.50868404,9.51277308 L5.55957128,8.24845122 L9.92287979,5.4279576 Z M11.036684,5.4279576 L15.3999479,8.24845122 L13.4510138,9.51277308 L11.036684,7.94667946 L11.036684,5.4279576 Z M16.9546628,8.17739513 C16.9535011,8.16946631 16.9514457,8.1618841 16.9501053,8.15395528 C16.9473351,8.13870422 16.9444755,8.12349648 16.9403649,8.10863536 C16.9379521,8.09971002 16.9345564,8.0911313 16.9316968,8.08255257 C16.9272287,8.06929455 16.9228053,8.05607985 16.9173543,8.04321176 C16.9135564,8.03428642 16.9091777,8.02536108 16.904933,8.01678236 C16.8990798,8.00452085 16.8930032,7.99260596 16.8859883,7.98108101 C16.8808947,7.97245896 16.8754436,7.96418352 16.8701713,7.95595141 C16.8626649,7.94468642 16.8549798,7.93376805 16.8465798,7.92319629 C16.8405032,7.91526747 16.8340245,7.90733865 16.8275457,7.89971311 C16.8186543,7.88983458 16.80945,7.87991273 16.7997543,7.87064077 C16.7924713,7.86340518 16.785233,7.85612627 16.7775926,7.84949725 C16.7673606,7.84057191 16.756816,7.83194986 16.7460479,7.82371776 C16.7377372,7.81743536 16.729516,7.81115296 16.7208479,7.80521718 C16.7175862,7.80322414 16.7147266,7.8005812 16.7116436,7.79858816 L10.7886606,3.96961795 C10.6015819,3.84864928 10.3579819,3.84864928 10.1708585,3.96961795 L4.24792021,7.79858816 C4.24483723,7.8005812 4.24193298,7.80322414 4.23871596,7.80521718 C4.23000319,7.81115296 4.2218266,7.81743536 4.21365,7.82371776 C4.20274787,7.83194986 4.19215851,7.84057191 4.18215,7.84949725 C4.17428617,7.85612627 4.16713723,7.86340518 4.15980957,7.87064077 C4.15011383,7.87991273 4.14090957,7.88983458 4.13219681,7.89971311 C4.12553936,7.90733865 4.11906064,7.91526747 4.11293936,7.92319629 C4.10476277,7.93376805 4.09689894,7.94468642 4.08957128,7.95595141 C4.08394149,7.96418352 4.07866915,7.97245896 4.07357553,7.98108101 C4.06673936,7.99260596 4.06061809,8.00452085 4.05463085,8.01678236 C4.05038617,8.02536108 4.04596277,8.03428642 4.04220957,8.04321176 C4.03675851,8.05607985 4.03233511,8.06929455 4.02786702,8.08255257 C4.02496277,8.0911313 4.02174574,8.09971002 4.01919894,8.10863536 C4.0150883,8.12349648 4.01236277,8.13870422 4.00945851,8.15395528 C4.00811809,8.1618841 4.00606277,8.16946631 4.00503511,8.17739513 C4.0017734,8.20053168 3.99994149,8.22401485 3.99994149,8.24780132 L3.99994149,12.0767715 C3.99994149,12.100558 4.0017734,12.1240412 4.00503511,12.1475243 C4.00606277,12.1551499 4.00811809,12.1630354 4.00945851,12.1706176 C4.01236277,12.1858686 4.0150883,12.201033 4.01919894,12.2159375 C4.02174574,12.2248628 4.02496277,12.2334415 4.02786702,12.2420636 C4.03233511,12.255235 4.03675851,12.268493 4.04220957,12.2817077 C4.04596277,12.2906764 4.05038617,12.2992551 4.05463085,12.3078338 C4.06061809,12.3200087 4.06673936,12.3319236 4.07357553,12.3438385 C4.07866915,12.3521572 4.08394149,12.360346 4.08957128,12.3686214 C4.09689894,12.3798864 4.10476277,12.3908048 4.11293936,12.4013766 C4.11906064,12.409652 4.12553936,12.4172342 4.13219681,12.4248164 C4.14090957,12.4347383 4.15011383,12.4446601 4.15980957,12.4539321 C4.16713723,12.4611677 4.17428617,12.4684466 4.18215,12.4750323 C4.19215851,12.4840443 4.20274787,12.492623 4.21365,12.5008551 C4.2218266,12.5071808 4.23000319,12.5134199 4.23871596,12.5193557 C4.24193298,12.5213487 4.24483723,12.5239916 4.24792021,12.5259414 L10.1708585,16.3549549 C10.2644202,16.4154392 10.3721457,16.4458547 10.4798713,16.4458547 C10.5874181,16.4458547 10.6950989,16.4154392 10.7886606,16.3549549 L16.7116436,12.5259414 C16.7147266,12.5239916 16.7175862,12.5213487 16.7208479,12.5193557 C16.729516,12.5134199 16.7377372,12.5071808 16.7460479,12.5008551 C16.756816,12.492623 16.7673606,12.4840443 16.7775926,12.4750323 C16.785233,12.4684466 16.7924713,12.4611677 16.7997543,12.4539321 C16.80945,12.4446601 16.8186543,12.4347383 16.8275457,12.4248164 C16.8340245,12.4172342 16.8405032,12.409652 16.8465798,12.4013766 C16.8549798,12.3908048 16.8626649,12.3798864 16.8701713,12.3686214 C16.8754436,12.360346 16.8808947,12.3521572 16.8859883,12.3438385 C16.8930032,12.3319236 16.8990798,12.3200087 16.904933,12.3078338 C16.9091777,12.2992551 16.9135564,12.2906764 16.9173543,12.2817077 C16.9228053,12.268493 16.9272287,12.255235 16.9316968,12.2420636 C16.9345564,12.2334415 16.9379521,12.2248628 16.9403649,12.2159375 C16.9444755,12.201033 16.9473351,12.1858686 16.9501053,12.1706176 C16.9514457,12.1630354 16.9535011,12.1551499 16.9546628,12.1475243 C16.9577457,12.1240412 16.959667,12.100558 16.959667,12.0767715 L16.959667,8.24780132 C16.959667,8.22401485 16.9577457,8.20053168 16.9546628,8.17739513 Z" id="Fill-4"></path>
            </g>
        </g>
    </g>
</svg>
