<svg
  id="linkedin"
  width="35px"
  height="34px"
  viewBox="0 0 35 34"
  version="1.1"
  xmlns="http://www.w3.org/2000/svg"
  xmlns:xlink="http://www.w3.org/1999/xlink"
>
    <title>Visit my LinkedIn</title>
    <g stroke="none" stroke-width="1" fill="none" fill-rule="evenodd">
        <g id="Visit-my-LinkedIn" transform="translate(1.000000, 1.000000)">
            <path
        d="M0,15.8547718 C0,24.6112944 7.27956838,31.7092755 16.2587956,31.7092755 C25.2385727,31.7092755 32.5177974,24.6112944 32.5177974,15.8547718 C32.5177974,7.09831624 25.2385727,0 16.2587956,0 C7.27956838,0 0,7.09831624 0,15.8547718 Z"
        stroke="#191919"
        fill="#191919"
      />
            <g
        id="linked-initials"
        transform="translate(7.000000, 7.000000)"
        fill="#FFFFFF"
        stroke="#FFFFFF"
      >
                <path
          d="M18.5398879,17.8020952 L14.8689645,17.8020952 L14.8689645,12.0574679 C14.8689645,10.6878332 14.8455872,8.9255974 12.9616519,8.9255974 C11.0509015,8.9255974 10.7593729,10.4183067 10.7593729,11.9598333 L10.7593729,17.8020952 L7.0925748,17.8020952 L7.0925748,5.98968371 L10.6115458,5.98968371 L10.6115458,7.60478002 L10.6624258,7.60478002 C11.151974,6.67587618 12.3497167,5.6967799 14.1353298,5.6967799 C17.8530079,5.6967799 18.5398879,8.14245789 18.5398879,11.3238332 L18.5398879,17.8020952 Z"
          id="Path"
        />
                <path
          d="M2.95341779,4.37596253 C1.77423934,4.37596253 0.823333333,3.42230625 0.823333333,2.24656564 C0.823333333,1.0715126 1.77423934,0.117856321 2.95341779,0.117856321 C4.12778326,0.117856321 5.08075197,1.0715126 5.08075197,2.24656564 C5.08075197,3.42230625 4.12778326,4.37596253 2.95341779,4.37596253 Z"
          id="Path"
        />
                <polygon
          points="1.114862 17.8020952 4.78991087 17.8020952 4.78991087 5.98968371 1.114862 5.98968371"
        />
            </g>
        </g>
    </g>
</svg>
