<svg
  version="1.1"
  id="logo-nyusps-hsa"
  class="logo-nyusps-hsa"
  xmlns="http://www.w3.org/2000/svg"
  xmlns:xlink="http://www.w3.org/1999/xlink"
  x="0px"
  y="0px"
  viewBox="0 0 484.9 106.2"
  enable-background="new 0 0 484.9 106.2"
  xml:space="preserve"
>
                <path
    id="path-school-of-professional-studies"
    d="M1.2,103.4l2.3-2.7c1.6,1.3,3.2,2.1,5.2,2.1c1.6,0,2.5-0.6,2.5-1.6v0
              c0-1-0.6-1.5-3.5-2.2C4.1,98,1.9,97,1.9,93.6v0c0-3.2,2.5-5.2,6.1-5.2c2.5,0,4.7,0.8,6.5,2.2l-2,2.9c-1.5-1.1-3.1-1.7-4.5-1.7
              s-2.2,0.7-2.2,1.5v0c0,1.1,0.7,1.5,3.8,2.3c3.5,0.9,5.5,2.2,5.5,5.2v0c0,3.5-2.6,5.4-6.4,5.4C5.9,106.2,3.3,105.3,1.2,103.4z
               M17.5,97.3L17.5,97.3c0-5,3.7-9,9.1-9c3.3,0,5.2,1.1,6.9,2.7L31,93.7c-1.3-1.2-2.7-2-4.4-2c-2.9,0-5,2.4-5,5.4v0c0,3,2.1,5.5,5,5.5
              c2,0,3.2-0.8,4.6-2l2.4,2.5c-1.8,1.9-3.8,3.1-7.1,3.1C21.3,106.2,17.5,102.3,17.5,97.3z M36.6,88.5h3.8v6.9h7.1v-6.9h3.8v17.4h-3.8
              v-7h-7.1v7h-3.8V88.5z M54.8,97.3L54.8,97.3c0-5,3.9-9,9.3-9s9.2,4,9.2,8.9v0c0,4.9-3.9,9-9.3,9S54.8,102.2,54.8,97.3z M69.2,97.3
              L69.2,97.3c0-3-2.2-5.5-5.3-5.5c-3.1,0-5.2,2.4-5.2,5.4v0c0,3,2.2,5.5,5.3,5.5C67.1,102.7,69.2,100.3,69.2,97.3z M75.9,97.3
              L75.9,97.3c0-5,3.9-9,9.3-9c5.4,0,9.2,4,9.2,8.9v0c0,4.9-3.9,9-9.3,9S75.9,102.2,75.9,97.3z M90.4,97.3L90.4,97.3
              c0-3-2.2-5.5-5.3-5.5s-5.2,2.4-5.2,5.4v0c0,3,2.2,5.5,5.3,5.5S90.4,100.3,90.4,97.3z M97.8,88.5h3.8v13.9h8.7v3.5H97.8V88.5z
               M119.9,97.3L119.9,97.3c0-5,3.9-9,9.3-9c5.4,0,9.2,4,9.2,8.9v0c0,4.9-3.9,9-9.3,9C123.7,106.2,119.9,102.2,119.9,97.3z M134.4,97.3
              L134.4,97.3c0-3-2.2-5.5-5.3-5.5c-3.1,0-5.2,2.4-5.2,5.4v0c0,3,2.2,5.5,5.3,5.5C132.2,102.7,134.4,100.3,134.4,97.3z M141.8,88.5
              H155V92h-9.4v3.7h8.3v3.5h-8.3v6.7h-3.8V88.5z M165.5,88.5h7.1c4.2,0,6.7,2.5,6.7,6v0c0,4-3.1,6.1-7,6.1h-2.9v5.2h-3.8V88.5z
               M172.4,97.3c1.9,0,3-1.1,3-2.6v0c0-1.7-1.2-2.6-3.1-2.6h-3v5.3H172.4z M182.1,88.5h8c2.2,0,3.9,0.6,5.1,1.8c1,1,1.5,2.3,1.5,4v0
              c0,2.8-1.5,4.6-3.7,5.4l4.3,6.2h-4.5l-3.7-5.6h-3v5.6h-3.8V88.5z M189.9,97c1.9,0,2.9-1,2.9-2.5v0c0-1.6-1.1-2.5-3-2.5H186v5H189.9z
               M199.3,97.3L199.3,97.3c0-5,3.9-9,9.3-9c5.4,0,9.2,4,9.2,8.9v0c0,4.9-3.9,9-9.3,9C203.2,106.2,199.3,102.2,199.3,97.3z M213.8,97.3
              L213.8,97.3c0-3-2.2-5.5-5.3-5.5s-5.2,2.4-5.2,5.4v0c0,3,2.2,5.5,5.3,5.5S213.8,100.3,213.8,97.3z M221.3,88.5h13.2V92h-9.4v3.7h8.3
              v3.5h-8.3v6.7h-3.8V88.5z M237.6,88.5h13.1V92h-9.3v3.5h8.2v3.4h-8.2v3.7h9.4v3.4h-13.2V88.5z M253,103.4l2.3-2.7
              c1.6,1.3,3.2,2.1,5.2,2.1c1.6,0,2.5-0.6,2.5-1.6v0c0-1-0.6-1.5-3.5-2.2c-3.5-0.9-5.8-1.9-5.8-5.3v0c0-3.2,2.5-5.2,6.1-5.2
              c2.5,0,4.7,0.8,6.5,2.2l-2,2.9c-1.5-1.1-3.1-1.7-4.5-1.7c-1.5,0-2.2,0.7-2.2,1.5v0c0,1.1,0.7,1.5,3.8,2.3c3.5,0.9,5.5,2.2,5.5,5.2v0
              c0,3.5-2.6,5.4-6.4,5.4C257.8,106.2,255.1,105.3,253,103.4z M268.7,103.4l2.3-2.7c1.6,1.3,3.2,2.1,5.2,2.1c1.6,0,2.5-0.6,2.5-1.6v0
              c0-1-0.6-1.5-3.5-2.2c-3.5-0.9-5.8-1.9-5.8-5.3v0c0-3.2,2.5-5.2,6.1-5.2c2.5,0,4.7,0.8,6.5,2.2l-2,2.9c-1.5-1.1-3.1-1.7-4.5-1.7
              c-1.5,0-2.2,0.7-2.2,1.5v0c0,1.1,0.7,1.5,3.8,2.3c3.5,0.9,5.5,2.2,5.5,5.2v0c0,3.5-2.6,5.4-6.4,5.4
              C273.4,106.2,270.8,105.3,268.7,103.4z M286,88.5h3.8v17.4H286V88.5z M293.4,97.3L293.4,97.3c0-5,3.9-9,9.3-9c5.4,0,9.2,4,9.2,8.9v0
              c0,4.9-3.9,9-9.3,9C297.2,106.2,293.4,102.2,293.4,97.3z M307.9,97.3L307.9,97.3c0-3-2.2-5.5-5.3-5.5s-5.2,2.4-5.2,5.4v0
              c0,3,2.2,5.5,5.3,5.5S307.9,100.3,307.9,97.3z M315.3,88.5h3.5l8.2,10.7V88.5h3.8v17.4h-3.3l-8.4-11.1v11.1h-3.8V88.5z M340.9,88.4
              h3.5l7.5,17.5h-4l-1.6-3.9h-7.4l-1.6,3.9h-3.9L340.9,88.4z M344.9,98.7l-2.3-5.6l-2.3,5.6H344.9z M354.6,88.5h3.8v13.9h8.7v3.5
              h-12.5V88.5z M376.2,103.4l2.3-2.7c1.6,1.3,3.2,2.1,5.2,2.1c1.6,0,2.5-0.6,2.5-1.6v0c0-1-0.6-1.5-3.5-2.2c-3.5-0.9-5.8-1.9-5.8-5.3
              v0c0-3.2,2.5-5.2,6.1-5.2c2.5,0,4.7,0.8,6.5,2.2l-2,2.9c-1.5-1.1-3.1-1.7-4.5-1.7c-1.5,0-2.2,0.7-2.2,1.5v0c0,1.1,0.7,1.5,3.8,2.3
              c3.5,0.9,5.5,2.2,5.5,5.2v0c0,3.5-2.6,5.4-6.4,5.4C381,106.2,378.3,105.3,376.2,103.4z M397,92.1h-5.3v-3.5h14.4v3.5h-5.3v13.9H397
              V92.1z M408.8,98.5v-9.9h3.8v9.8c0,2.8,1.4,4.3,3.8,4.3c2.3,0,3.8-1.4,3.8-4.2v-10h3.8v9.8c0,5.3-3,7.9-7.6,7.9
              C411.6,106.2,408.8,103.6,408.8,98.5z M427.9,88.5h6.8c5.5,0,9.2,3.8,9.2,8.6v0c0,4.9-3.8,8.7-9.2,8.7h-6.8V88.5z M434.6,102.5
              c3.1,0,5.2-2.1,5.2-5.2v0c0-3.1-2.1-5.2-5.2-5.2h-3v10.5H434.6z M447.5,88.5h3.8v17.4h-3.8V88.5z M455.7,88.5h13.1V92h-9.3v3.5h8.2
              v3.4h-8.2v3.7h9.4v3.4h-13.2V88.5z M471.1,103.4l2.3-2.7c1.6,1.3,3.2,2.1,5.2,2.1c1.6,0,2.5-0.6,2.5-1.6v0c0-1-0.6-1.5-3.5-2.2
              c-3.5-0.9-5.8-1.9-5.8-5.3v0c0-3.2,2.5-5.2,6.1-5.2c2.5,0,4.7,0.8,6.5,2.2l-2,2.9c-1.5-1.1-3.1-1.7-4.5-1.7s-2.2,0.7-2.2,1.5v0
              c0,1.1,0.7,1.5,3.8,2.3c3.5,0.9,5.5,2.2,5.5,5.2v0c0,3.5-2.6,5.4-6.4,5.4C475.9,106.2,473.2,105.3,471.1,103.4z"
  />
                <polygon
    id="path-pipe"
    points="214.6,66.7 213.1,66.7 213.1,0 214.6,0 214.6,66.7 "
  />
                <path
    id="path-nyu"
    fill="#57068C"
    d="M84,14.7h7.7L109.4,38V14.7h8.2v37.9h-7.1L92.2,28.5v24.1H84V14.7L84,14.7z M136.4,37.6v14.9
              h8.3V37.4l14.6-22.8h-9.5l-9.2,15.2l-9-15.2h-9.7L136.4,37.6L136.4,37.6z M162.8,36.3c0,11.1,6.2,16.8,16.4,16.8
              c10.2,0,16.6-5.6,16.6-17.1V14.7h-8.3v21.7c0,6-3.1,9.1-8.2,9.1c-5.1,0-8.2-3.2-8.2-9.4V14.7h-8.3V36.3L162.8,36.3z M29.4,34.8
              c0.1,0.1,0.1,0.2,0,0.2c-10.7-0.3-10.7-8.1-8.5-11.6c2-3.4,3.4-6.3,3.4-7.4c0-0.1,0.1-0.1,0.2,0c0.5,0.7,1.6,3.3,1.7,4.3
              c0,0.2,0,0.3-0.1,0.4C23.2,24.9,22.5,30.7,29.4,34.8L29.4,34.8z M31.2,34.5c0,0.1-0.1,0.2-0.1,0.1c-6.6-4.3-8-8.9-1.7-16.4
              c0.7-0.9,4.5-4.9,5.2-7.6c0-0.1,0.1-0.1,0.2,0c0.5,0.6,2.1,5.1,2.1,7.8c0,0.2,0,0.4-0.1,0.5C35.3,20.1,27.1,25.8,31.2,34.5
              L31.2,34.5z M32.5,34.1c0,0.1-0.1,0.1-0.2,0c-3.3-7.8,3.2-12.7,4.9-14c1.2-1,2.9-3.1,3.9-5.4c0-0.1,0.1-0.1,0.1,0
              c0.5,0.6,2.4,5.4,1.4,8.2C42,24.6,34.5,24.9,32.5,34.1L32.5,34.1z M33.9,34.9c-0.1,0-0.1,0-0.1-0.1c0.4-3.4,2.8-7.3,6.7-9
              c4.4-1.9,6-5,6.3-5.9c0.1-0.2,0.2-0.1,0.2,0.1C47,24.2,46.1,35.4,33.9,34.9L33.9,34.9z M36.7,39.1L36.7,39.1H27v-2.8h9.6V39.1
              L36.7,39.1z M31,58.9L31,58.9l-2-18.5h5.7l-2.3,18.5C32.1,59.6,31.1,59.4,31,58.9L31,58.9z M66.7,66.7L66.7,66.7V0H0v66.7H66.7
              L66.7,66.7z"
  />
                <path
    id="path-high-school-academy"
    d="M234.5,7.1h5.2v9.4h9.7V7.1h5.2V31h-5.2v-9.6h-9.7V31h-5.2V7.1z M260.7,7.1h5.2V31h-5.2V7.1z
               M270.8,19.1L270.8,19.1c0-6.8,5.3-12.4,12.5-12.4c4.3,0,6.9,1.2,9.4,3.3l-3.3,4c-1.8-1.5-3.5-2.4-6.2-2.4c-3.8,0-6.8,3.4-6.8,7.4
              v0.1c0,4.4,3,7.6,7.2,7.6c1.9,0,3.6-0.5,4.9-1.4v-3.4h-5.3v-4.5h10.4v10.4c-2.5,2.1-5.8,3.8-10.2,3.8
              C275.9,31.4,270.8,26.2,270.8,19.1z M298.6,7.1h5.2v9.4h9.7V7.1h5.2V31h-5.2v-9.6h-9.7V31h-5.2V7.1z M333.1,27.5l3.1-3.7
              c2.1,1.8,4.4,2.9,7.1,2.9c2.1,0,3.4-0.9,3.4-2.2v-0.1c0-1.3-0.8-2-4.8-3c-4.8-1.2-7.9-2.6-7.9-7.3V14c0-4.3,3.5-7.2,8.3-7.2
              c3.5,0,6.4,1.1,8.9,3l-2.7,4c-2.1-1.5-4.2-2.4-6.2-2.4c-2,0-3.1,0.9-3.1,2.1v0.1c0,1.6,1,2.1,5.1,3.1c4.8,1.3,7.6,3,7.6,7.2v0.1
              c0,4.7-3.6,7.4-8.8,7.4C339.6,31.3,335.9,30.1,333.1,27.5z M355.4,19.1L355.4,19.1c0-6.8,5.1-12.4,12.4-12.4c4.5,0,7.2,1.5,9.4,3.7
              l-3.3,3.9c-1.8-1.7-3.7-2.7-6.1-2.7c-4,0-6.9,3.3-6.9,7.4v0.1c0,4.1,2.8,7.5,6.9,7.5c2.7,0,4.4-1.1,6.3-2.8l3.3,3.4
              c-2.5,2.6-5.2,4.3-9.8,4.3C360.6,31.4,355.4,26,355.4,19.1z M381.6,7.1h5.2v9.4h9.7V7.1h5.2V31h-5.2v-9.6h-9.7V31h-5.2V7.1z
               M406.5,19.1L406.5,19.1c0-6.8,5.3-12.4,12.7-12.4c7.4,0,12.6,5.5,12.6,12.3v0.1c0,6.8-5.3,12.3-12.7,12.3
              C411.8,31.4,406.5,25.9,406.5,19.1z M426.3,19.1L426.3,19.1c0-4.2-3-7.6-7.2-7.6c-4.2,0-7.2,3.3-7.2,7.4v0.1c0,4.1,3,7.5,7.2,7.5
              C423.4,26.6,426.3,23.2,426.3,19.1z M435.4,19.1L435.4,19.1c0-6.8,5.3-12.4,12.7-12.4c7.4,0,12.6,5.5,12.6,12.3v0.1
              c0,6.8-5.3,12.3-12.7,12.3C440.7,31.4,435.4,25.9,435.4,19.1z M455.3,19.1L455.3,19.1c0-4.2-3-7.6-7.2-7.6c-4.2,0-7.2,3.3-7.2,7.4
              v0.1c0,4.1,3,7.5,7.2,7.5C452.4,26.6,455.3,23.2,455.3,19.1z M465.4,7.1h5.2v19.1h11.9V31h-17.1V7.1z M242.7,41h4.8l10.2,24h-5.5
              l-2.2-5.3H240l-2.2,5.3h-5.3L242.7,41z M248.2,55.1l-3.2-7.7l-3.2,7.7H248.2z M258.9,53.2L258.9,53.2c0-6.8,5.1-12.4,12.4-12.4
              c4.5,0,7.2,1.5,9.4,3.7l-3.3,3.9c-1.8-1.7-3.7-2.7-6.1-2.7c-4,0-6.9,3.3-6.9,7.4v0.1c0,4.1,2.8,7.5,6.9,7.5c2.7,0,4.4-1.1,6.3-2.8
              l3.3,3.4c-2.5,2.6-5.2,4.3-9.8,4.3C264.1,65.5,258.9,60,258.9,53.2z M293.2,41h4.8l10.2,24h-5.5l-2.2-5.3h-10.1l-2.2,5.3H283
              L293.2,41z M298.7,55.1l-3.2-7.7l-3.2,7.7H298.7z M312,41.2h9.3c7.5,0,12.7,5.1,12.7,11.9v0.1c0,6.7-5.2,11.9-12.7,11.9H312V41.2z
               M321.3,60.3c4.3,0,7.2-2.9,7.2-7.1v-0.1c0-4.2-2.9-7.2-7.2-7.2h-4.1v14.4H321.3z M338.6,41.2h18v4.7h-12.8v4.8h11.2v4.7h-11.2v5
              h12.9v4.7h-18.2V41.2z M361.4,41.2h5.7l6.3,10.1l6.3-10.1h5.7v23.9h-5.2V49.5l-6.7,10.2h-0.1l-6.6-10.1v15.5h-5.1V41.2z M397.7,55.7
              l-9.2-14.4h6.1l5.7,9.6l5.8-9.6h6L403,55.5v9.5h-5.2V55.7z"
  />
              </svg>
