<svg
  id="sju-logo"
  class="sju-logo"
  height="78"
  version="1.1"
  viewBox="0 0 78 80"
  width="80"
  xmlns="http://www.w3.org/2000/svg"
  xmlns:xlink="http://www.w3.org/1999/xlink"
>
                <path
    d="M42.9,29.2682927 L58.709782,29.2682927 L58.709782,31.2039472 C54.4655027,31.2039472 54.1609804,33.151333 54.1635181,35.9968103 L54.1635181,51.236994 C54.1635181,56.7858704 56.1137295,59.980678 62.0024292,59.980678 C67.7515562,59.980678 70.8995554,56.8158502 70.8995554,50.9098228 L70.8995554,35.9968103 C70.8995554,32.5009009 70.8995554,31.2039472 66.3532914,31.2039472 L66.3532914,29.2682927 L72.1036872,29.2682927 L78,29.2682927 L78,31.2039472 C73.6732459,31.2039472 73.6732459,32.8306791 73.6732459,35.9968103 L73.6732459,51.192676 C73.6732459,59.0825864 68.3770958,62.4390244 61.2487366,62.4390244 C52.6485197,62.4390244 47.4488016,60.453838 47.4488016,50.8615944 L47.4488016,35.9968103 C47.4488016,33.151333 47.4488016,31.2039472 42.9,31.2039472 L42.9,31.2131568 C38.1538048,31.2131568 38.1538048,33.1737581 38.1538048,36.0851527 L38.1538048,62.2063953 C38.1538048,74.1522934 30.443389,79.1265816 19.5,80 L19.5,78.0144813 C27.6909929,76.546981 30.9186704,69.9714258 30.9186704,64.2443715 L30.9186704,36.0851527 C30.9186704,33.1737581 30.9146987,31.2131568 26.1751231,31.2131568 L26.1751231,29.2682927 L34.1066308,29.2682927 L42.9,29.2682927 Z M21.7661909,38.037037 L18.5023256,38.037037 C18.2758941,34.0007528 16.9585886,31.2646793 12.5150281,31.2646793 C9.02348035,31.2646793 6.43890938,32.9360132 6.43890938,36.7368263 C6.43890938,41.562707 12.0171291,41.8877597 15.4186047,43.0011292 C20.3175301,44.5777627 23.4,46.2004667 23.4,52.0936465 C23.4,59.9793737 16.7321572,62.4390244 10.1131034,62.4390244 C6.43890938,62.4390244 3.35518845,61.7914785 0,60.8163204 L0,52.695122 L3.44651163,52.695122 C3.85433841,57.8460554 4.94396151,60.5347787 10.4746431,60.5347787 C14.057514,60.5347787 16.8247314,58.2645288 16.8247314,54.5046673 C16.8247314,52.0462963 15.8264314,50.424872 13.512077,49.4484342 C7.61860465,47.3151159 0,46.9900632 0,38.6871424 C0,31.7279434 6.48394547,29.2682927 12.3348837,29.2682927 C15.055814,29.2682927 18.5923978,29.778907 21.7661909,30.8001355 L21.7661909,38.037037 Z M35.1540853,1.30111833 C35.5484014,1.79848352 39,6.26240479 39,9.89646812 C39,10.5985499 38.9626998,11.1467508 38.8627886,11.7073171 L36.1358792,11.7073171 C36.3050622,11.0615667 36.339698,10.6054196 36.339698,9.89646812 C36.339698,8.27934429 35.1367673,5.93265991 34.1243339,4.37461537 C33.1105684,5.93265991 31.9089698,8.27934429 31.9089698,9.89646812 C31.9089698,10.6067935 31.9436057,11.0656885 32.1114565,11.7073171 L29.3858792,11.7073171 C29.2873002,11.1481247 29.25,10.5985499 29.25,9.89646812 C29.25,6.26240479 32.6989343,1.79848352 33.0919183,1.30111833 L34.1230018,0 L35.1540853,1.30111833 Z M32.5232081,17.6164429 L33.15,27.3170732 L30.4970667,27.3170732 L29.8782256,17.7213976 L29.8769004,17.6842795 C29.8715999,16.2136337 28.9691785,14.5228391 27.0026685,14.2860511 C26.2128842,14.1926158 25.4708049,14.3986854 24.9129203,14.8684217 C24.4093665,15.2933602 24.1032589,15.8974897 24.0979583,16.48626 C24.0794063,18.0746598 25.3011868,19.101168 27.7275209,19.536346 L27.2451694,22.0488591 C23.5307977,21.3845727 21.4198473,19.3469156 21.4503255,16.4568215 C21.4675524,15.1320884 22.0943443,13.850873 23.1730095,12.9433989 C24.3060055,11.9872871 25.7822132,11.5636285 27.3299785,11.7504991 C30.6998133,12.1523988 32.4861041,14.9964152 32.5232081,17.6164429 Z M35.7269292,17.6164429 C35.7640412,14.9964152 37.5493976,12.1523988 40.9212957,11.7504991 C42.4693998,11.5636285 43.9459306,11.9872871 45.0791747,12.9433989 C46.158076,13.850873 46.7850052,15.1320884 46.7995849,16.4568215 C46.8340461,19.3469156 44.7213081,21.3845727 41.0047979,22.0488591 L40.5236662,19.536346 C42.9505315,19.101168 44.1725794,18.0746598 44.152698,16.48626 C44.1460708,15.8974897 43.8412215,15.2933602 43.3388829,14.8684217 C42.7808762,14.3986854 42.0386345,14.1926158 41.2486773,14.2860511 C39.2817368,14.5228391 38.3791178,16.2136337 38.3724907,17.6842795 L38.3724907,17.7213976 L37.7521887,27.3170732 L35.1,27.3170732 L35.7269292,17.6164429 Z"
    id="Combined-Shape"
  />
              </svg>
