<svg xmlns="http://www.w3.org/2000/svg" viewBox="0 0 379.9 64.4" aria-label-by="label-logo-smu-tagline">
<title id="label-logo-smu-tagline">SMU Cox School of Business</title>
<path fill="#CC0035" d="M28.9,57.8C12.9,57.8,0,44.8,0,28.9C0,12.9,12.9,0,28.9,0c15.9,0,28.9,12.9,28.9,28.9
  C57.8,44.8,44.8,57.8,28.9,57.8"></path>
<path fill="#FFFFFF" d="M28.9,56.8C13.5,56.8,1,44.2,1,28.9S13.5,1,28.9,1c15.4,0,27.9,12.5,27.9,27.9S44.2,56.8,28.9,56.8
   M28.9,2.3C14.2,2.3,2.2,14.2,2.2,28.9c0,14.7,11.9,26.6,26.6,26.6c14.7,0,26.6-11.9,26.6-26.6C55.5,14.2,43.6,2.3,28.9,2.3z"></path>
<polyline fill="#FFFFFF" points="15.8,24.8 15.8,40.9 42,40.9 42,24.8 15.8,24.8 "></polyline>
<polyline fill="#CC0035" points="19,40.5 19,25.5 16.7,25.5 16.7,40.5 19,40.5 "></polyline>
<polyline fill="#CC0035" points="21.1,40.5 21.1,25.5 23.4,25.5 23.4,40.5 21.1,40.5 "></polyline>
<polyline fill="#CC0035" points="25.5,40.5 25.5,25.5 27.8,25.5 27.8,40.5 25.5,40.5 "></polyline>
<polyline fill="#CC0035" points="29.9,40.5 29.9,25.5 32.2,25.5 32.2,40.5 29.9,40.5 "></polyline>
<polyline fill="#CC0035" points="34.4,40.5 34.4,25.5 36.7,25.5 36.7,40.5 34.4,40.5 "></polyline>
<polyline fill="#CC0035" points="38.8,40.5 38.8,25.5 41.1,25.5 41.1,40.5 38.8,40.5 "></polyline>
<polyline fill="#CC0035" points="16.1,24.4 16.1,16.4 41.6,16.4 41.6,24.4 16.1,24.4 "></polyline>
<path fill="#FFFFFF" d="M42.1,24.8H15.7V16h26.4V24.8z M16.6,23.9h24.6v-7.1H16.6V23.9z"></path>
<polyline fill="#E51932" points="28.9,24.7 42.7,24.7 42.7,23.5 28.9,17.2 15.1,23.5 15.1,24.7 28.9,24.7 "></polyline>
<path fill="#FFFFFF" d="M43.8,25.8H14v-3l14.9-6.9l14.9,6.9V25.8 M17.7,23.6H40l-11.1-5.1L17.7,23.6z"></path>
<path fill="#CC0035" d="M43,25H14.8v-1.7l14.1-6.5L43,23.3V25 M15.4,24.4h26.9v-0.6l-13.5-6.2l-13.5,6.2V24.4z"></path>
<path fill="#CC0035" d="M28.9,7.8c-5.5,0-10.2,3.6-11.9,8.6h23.8C39.1,11.4,34.4,7.8,28.9,7.8"></path>
<path fill="#FFFFFF" d="M41.4,16.9h-25l0.2-0.6c1.8-5.3,6.7-8.9,12.3-8.9c5.6,0,10.5,3.6,12.3,8.9L41.4,16.9 M17.6,16h22.5
  c-1.8-4.6-6.2-7.7-11.3-7.7C23.9,8.3,19.4,11.3,17.6,16z"></path>
<polyline fill="#FFFFFF" points="32,8 31.1,8 31.1,6.8 28.9,6.2 26.7,6.8 26.7,8 25.8,8 25.8,6.1 28.9,5.3 32,6.1 32,8 "></polyline>
<polyline fill="#FFFFFF" points="11.7,45.8 11.7,44.2 46,44.2 46,45.8 11.7,45.8 "></polyline>
<path fill="#FFFFFF" d="M46.5,46.3H11.3v-2.5h35.2V46.3z M12.2,45.4h33.4v-0.7H12.2V45.4z"></path>
<polyline fill="#FFFFFF" points="13.4,44.2 13.4,42.6 44.4,42.6 44.4,44.2 13.4,44.2 "></polyline>
<path fill="#FFFFFF" d="M44.8,44.6H13v-2.5h31.9V44.6z M13.8,43.8h30.1V43H13.8V43.8z"></path>
<polyline fill="#FFFFFF" points="15,42.6 15,41 42.7,41 42.7,42.6 15,42.6 "></polyline>
<path fill="#FFFFFF" d="M43.2,43H14.6v-2.5h28.6V43z M15.5,42.2h26.8v-0.7H15.5V42.2z"></path>
<polyline fill="#CC0035" points="12.2,45.4 12.2,44.5 45.6,44.5 45.6,45.4 12.2,45.4 "></polyline>
<polyline fill="#CC0035" points="13.9,43.9 13.9,43 43.9,43 43.9,43.9 13.9,43.9 "></polyline>
<polyline fill="#CC0035" points="42.3,42.4 42.3,41.5 15.5,41.5 15.5,42.4 42.3,42.4 "></polyline>
<polyline fill="#CC0035" points="28.9,18.3 40.9,23.8 16.9,23.8 28.9,18.3 "></polyline>
<path fill="#354CA1" d="M227.1,22.3h-0.7c-0.9-5.6-4.2-9.6-10.1-9.6c-9,0-14.1,7.4-14.1,15.9c0,9.7,7.5,16.5,14.6,16.5
  c6.5,0,9-4.7,11.3-10.1l0.7,0.3c-0.6,3-1.5,6-2.7,8.8c-3.2,1.5-6.6,2.1-10.1,2.1c-10.3,0-19.5-5.9-19.5-17.1
  c0-8.8,6.9-17.7,19.9-17.7c3.8,0,7.6,0.7,10.8,2.7V22.3 M267.7,28.9c0-8.8-5.5-17.4-18.1-17.4c-10.3,0-18,6.8-18,17.3
  c0,10.7,7.7,17.4,18.1,17.4C260,46.3,267.7,39.5,267.7,28.9 M249.2,12.7c7.6,0,12.6,8.3,12.8,17c0,7.1-3.6,15.4-11.8,15.4
  c-8.9,0-12.9-9.8-12.9-17.4C237.3,21,240.7,12.7,249.2,12.7z M286.3,12.1v0.7c1.4,0.3,3.1,0.7,3.1,2.5c0,2.6-3.9,8.2-5.2,10.6
  l-4.2-7.5c-1.7-3-2.2-4.7,1.5-5.6v-0.7h-13.7v0.7c4.8,0.2,6.8,4.4,8.8,8.2l4.9,8.7l-4.6,7.4c-2.9,4.6-4.3,7.3-10.3,7.9v0.7h13.2V45
  c-1.3-0.4-3.2-0.9-3.2-2.7c0-2.5,4.4-9.1,5.6-11.5l3.6,6.3c2.8,4.9,4.1,7.1-0.1,7.9v0.7h14V45c-5-0.6-6.4-3.5-8.7-7.5l-6-10.4l4-6.3
  c3.1-4.9,4.6-7.4,9.8-7.9v-0.7H286.3 M90.1,21.7l0.6-8.1c-2.5-1.4-5.4-2.1-8.3-2.2c-5.6-0.2-12.1,2.5-11.8,9.8
  C71,30.9,87.4,27.9,87.1,39c0,3.6-3.1,5.7-7,5.6c-6,0-9.4-4.9-10.6-9.5l-1,0l1.3,8.1c2.4,1.5,5.6,3,9.5,3c6.6,0,12.5-3.4,12.7-9.3
  c0.3-12.2-16.6-9.9-16.8-18.4c-0.1-3.5,3.2-5.9,6.9-5.8c5.8,0.2,6.3,4.8,7.1,8.9L90.1,21.7 M116.3,38.5l-9.8-20.9
  c-0.4-0.8-1.7-3.7-0.6-4.9l-0.1-0.5H95.2l0,0.7c2.9,0.2,5.6,1.3,5.4,4.6l-0.5,6.8L99,38.1c-0.3,3.5-1.1,6.1-5.4,6.9l0,0.7h13.7
  l0-0.7c-5.9-1-6-3.2-5.9-5.1c0.3-7.8,0.8-20.7,0.8-20.7h0.1l12.1,26.5h0.5L126.2,18h0.1l1.5,21.5c0.3,4.3-2.1,4.8-5.9,5.4l0,0.7H138
  l0-0.7c-5.2-0.9-5.1-2-5.7-8.8l-1.4-17.9c-0.2-3.5,1.7-4.6,4.8-5.3l0-0.7h-10.8l-0.1,0.8c1.1,0.7,0.4,3.2-0.8,5.9L116.3,38.5
   M176.2,12.2h-13.9v0.7c6.7,0.6,7.2,3.5,7.2,9.8v5.2c0,6,1,16.2-9.3,16.2c-13.1,0-11.6-12.7-11.6-13.7V20.3c0-5.4,0.1-6.4,6.4-7.3
  v-0.7h-16.5v0.7c5.8,0.8,5.8,2.3,5.9,7.3v11c0,3.9-1.5,15,13.3,15c10.6,0,13.3-6.5,13.4-12.8l0.3-10.8c0.2-6.5,0.5-9.3,4.8-9.8V12.2
   M203.8,54.9l0.1-2.7c-0.8-0.4-1.7-0.7-2.7-0.7c-2,0-4.1,1.4-4.1,3.5c0,3.6,5.6,3.4,5.6,6.6c0,1.4-1.1,2.2-2.4,2.2
  c-2,0-3.2-1.7-3.7-3.5h-0.3l0.5,3.1c0.9,0.6,2.1,0.9,3.2,0.9c2.1,0,4.4-1.2,4.4-3.6c0-3.7-5.7-3.6-5.7-6.7c0-1.2,1-2,2.1-2
  c1.8,0,2.3,1.4,2.6,2.9H203.8 M216.2,56.5v-2.6c-1.1-0.6-2.3-0.9-3.5-0.9c-4.2,0-6.5,2.9-6.5,5.7c0,3.6,3,5.5,6.3,5.5
  c1.1,0,2.2-0.2,3.3-0.7c0.4-0.9,0.7-1.9,0.9-2.9l-0.2-0.1c-0.7,1.7-1.6,3.3-3.6,3.3c-2.3,0-4.7-2.2-4.7-5.3c0-2.8,1.6-5.2,4.6-5.2
  c1.9,0,3,1.3,3.3,3.1H216.2 M221.1,61.5v-2.6h6.4v2.6c0,1.8,0,2.1-2.1,2.4v0.2h5.5v-0.2c-1.9-0.3-1.9-0.7-2-2.4v-5.6
  c0-1.6,0.1-2.1,2-2.4v-0.2h-5.5v0.2c2.1,0.3,2.1,0.6,2.1,2.4v2.3h-6.4v-2.3c0-1.8,0-2.1,2.1-2.4v-0.2h-5.5v0.2
  c1.9,0.3,1.9,0.7,2,2.4v5.6c0,1.6-0.1,2.1-2,2.4v0.2h5.5v-0.2C221.1,63.6,221.1,63.2,221.1,61.5 M243.9,58.7c0-2.8-1.8-5.6-5.9-5.6
  c-3.3,0-5.8,2.2-5.8,5.6c0,3.5,2.5,5.6,5.9,5.6C241.4,64.3,243.9,62.1,243.9,58.7 M237.9,53.4c2.4,0,4.1,2.7,4.1,5.5
  c0,2.3-1.2,5-3.8,5c-2.9,0-4.2-3.2-4.2-5.7C234.1,56.1,235.2,53.4,237.9,53.4z M257.4,58.7c0-2.8-1.8-5.6-5.9-5.6
  c-3.3,0-5.8,2.2-5.8,5.6c0,3.5,2.5,5.6,5.9,5.6C254.9,64.3,257.4,62.1,257.4,58.7 M251.4,53.4c2.4,0,4.1,2.7,4.1,5.5
  c0,2.3-1.2,5-3.8,5c-2.9,0-4.2-3.2-4.2-5.7C247.5,56.1,248.6,53.4,251.4,53.4z M258.7,63.9v0.2h8.9l0.9-3l-0.2-0.1
  c-1.2,2-1.6,2.8-4.1,2.6l-2-0.1c-0.2-0.8-0.2-1.6-0.2-2.4v-5.2c0-1.6,0.1-2.1,2-2.4v-0.2h-5.4v0.2c1.9,0.3,1.9,0.7,2,2.4v5.6
  C260.7,63.1,260.6,63.6,258.7,63.9 M285.5,58.7c0-2.8-1.8-5.6-5.9-5.6c-3.3,0-5.8,2.2-5.8,5.6c0,3.5,2.5,5.6,5.9,5.6
  C283,64.3,285.5,62.1,285.5,58.7 M279.5,53.4c2.4,0,4.1,2.7,4.1,5.5c0,2.3-1.2,5-3.8,5c-2.9,0-4.2-3.2-4.2-5.7
  C275.7,56.1,276.8,53.4,279.5,53.4z M294.3,56.8h-0.2c-0.1,1.5-1,1.6-2.3,1.6H290v-4.8h1.5c1.7,0,3,0.1,3.1,2.1h0.2l0.3-2.5h-8.5
  v0.2c1.9,0.3,1.9,0.7,2,2.4v5.6c0,1.6-0.1,2.1-2,2.4v0.2h5.7v-0.2c-2.2-0.3-2.3-0.7-2.3-2.4v-2.4h1.7c1.3,0,2.2,0,2.3,1.6h0.2V56.8
   M306.9,57.6L306.9,57.6c1.4-0.4,3.2-1.1,3.2-2.9c0-2.9-3.6-3.1-5.7-3l-3.7,0.1v0.3c2.1,0.3,2.1,0.8,2.2,2.7v6.3
  c-0.1,1.9-0.1,2.4-2.3,2.7v0.3l5,0c0.9,0,5.3,0.1,5.3-3.3C311,58.7,308.6,57.9,306.9,57.6 M304.6,57.9l0.7,0
  c2.7-0.1,3.8,2.1,3.8,3.2c0,1.6-1.1,2.6-2.7,2.6c-1.9,0-1.8-1.4-1.8-2.8V57.9z M304.6,52.1c1.9,0,3.8,0.7,3.8,2.9
  c0,2.1-2.1,2.6-3.8,2.6V52.1z M325.3,53.2h-4.6v0.2c2.2,0.2,2.4,1.1,2.4,3.2v1.7c0,2,0.3,5.3-3.1,5.3c-4.4,0-3.9-4.1-3.9-4.4v-3.3
  c0-1.8,0-2.1,2.1-2.4v-0.2h-5.5v0.2c1.9,0.3,1.9,0.7,2,2.4v3.6c0,1.3-0.5,4.9,4.4,4.9c3.6,0,4.4-2.1,4.5-4.2l0.1-3.5
  c0.1-2.1,0.2-3,1.6-3.2V53.2 M332.5,56l0.1-2.4c-0.7-0.4-1.5-0.6-2.3-0.6c-1.7,0-3.6,1.2-3.6,3.1c0,3.2,4.9,2.9,4.9,5.8
  c0,1.2-0.9,2-2.1,2c-1.8,0-2.8-1.5-3.2-3.1H326l0.5,2.7c0.8,0.5,1.8,0.8,2.8,0.8c1.8,0,3.9-1.1,3.9-3.1c0-3.2-5-3.1-5-5.9
  c0-1.1,0.8-1.8,1.9-1.8c1.6,0,2,1.2,2.3,2.5H332.5 M337.9,61.5v-5.6c0-1.6,0.1-2.1,2-2.4v-0.2h-5.4v0.2c1.9,0.3,1.9,0.7,2,2.4v5.6
  c0,1.6-0.1,2.1-2,2.4v0.2h5.4v-0.2C337.9,63.6,337.9,63.1,337.9,61.5 M351.1,61.6l-7.9-8.4h-2.6v0.2c2,0.4,2.3,1.1,2.3,2.7v2.4
  c0,3.6,0.1,5.1-2.1,5.3v0.2h4.8v-0.2c-2.3-0.5-2.2-1.3-2.2-5.2v-2.9c2.7,2.9,5.6,5.7,8.1,8.7l0.2,0c-0.1-3.5-0.2-7.3,0.1-9.1
  c0.1-1,0.3-1.6,1.4-1.8v-0.2h-4.4v0.2c1.8,0.3,2.2,0.8,2.2,2.3L351.1,61.6 M354,63.9v0.2h8.9c0.3-1,0.5-2,0.5-3.2h-0.2
  c-0.4,2-1.4,2.8-3.4,2.8c-2.6,0-2.4-1.3-2.4-2.3v-2.6h1.7c1.2,0,2.1,0,2.3,1.4h0.2v-3.6h-0.2c-0.2,1.4-1.1,1.5-2.3,1.5h-1.7v-4.6
  h1.6c1.6,0,3.1,0,3.2,2.1h0.2l0.2-2.5H354v0.2c1.9,0.3,1.9,0.7,2,2.4v5.6C355.9,63.1,355.9,63.6,354,63.9 M370.9,56l0.1-2.4
  c-0.7-0.4-1.5-0.6-2.3-0.6c-1.7,0-3.6,1.2-3.6,3.1c0,3.2,4.9,2.9,4.9,5.8c0,1.2-0.9,2-2.1,2c-1.8,0-2.8-1.5-3.2-3.1h-0.3l0.5,2.7
  c0.8,0.5,1.8,0.8,2.8,0.8c1.8,0,3.9-1.1,3.9-3.1c0-3.2-5-3.1-5-5.9c0-1.1,0.8-1.8,1.9-1.8c1.6,0,2,1.2,2.3,2.5H370.9 M379.2,56
  l0.1-2.4c-0.7-0.4-1.5-0.6-2.3-0.6c-1.7,0-3.6,1.2-3.6,3.1c0,3.2,4.9,2.9,4.9,5.8c0,1.2-0.9,2-2.1,2c-1.8,0-2.8-1.5-3.2-3.1h-0.3
  l0.5,2.7c0.8,0.5,1.8,0.8,2.8,0.8c1.8,0,3.9-1.1,3.9-3.1c0-3.2-5-3.1-5-5.9c0-1.1,0.8-1.8,1.9-1.8c1.6,0,2,1.2,2.3,2.5H379.2"></path>
<g>
  <rect x="185.8" y="12.2" fill="#354CA1" width="0.6" height="52"></rect>
</g>
<path fill="#354CA1" d="M178.5,43.8c0,1.1-0.9,1.9-1.9,1.9c-1.1,0-1.9-0.9-1.9-1.9c0-1.1,0.9-1.9,1.9-1.9
  C177.6,41.8,178.5,42.7,178.5,43.8 M178.2,43.8c0-0.9-0.7-1.7-1.6-1.7c-0.9,0-1.6,0.7-1.6,1.7c0,0.9,0.7,1.7,1.6,1.7
  C177.5,45.4,178.2,44.7,178.2,43.8z M176.2,44.9h-0.3v-2.3h0.9c0.5,0,0.7,0.2,0.7,0.6c0,0.4-0.3,0.6-0.5,0.6l0.6,1h-0.4l-0.6-1h-0.4
  V44.9z M176.5,43.6c0.3,0,0.6,0,0.6-0.4c0-0.3-0.3-0.4-0.5-0.4h-0.5v0.8H176.5z"></path>
</svg>
