<svg
  version="1.1"
  id="logo-nccu"
  class="logo-nccu"
  xmlns="http://www.w3.org/2000/svg"
  xmlns:xlink="http://www.w3.org/1999/xlink"
  x="0px"
  y="0px"
  viewBox="0 0 300 51.8"
  enable-background="new 0 0 300 51.8"
  xml:space="preserve"
  aria-labelledby="label-logo-nccu"
>
                <title id="label-logo-nccu">
                  North Carolina Central University logo
                </title>
                <path
    class="logo-nccu-path"
    fill-rule="evenodd"
    clip-rule="evenodd"
    fill="#FFFFFF"
    d="M23.5,35.8l-23-13.1C0.2,22.4,0,22,0,21.6
          	v-8.5c0-0.3,0.2-0.5,0.6-0.3l23,13.1c0.3,0.2,0.6,0.6,0.6,1v8.5C24.1,35.8,23.8,36,23.5,35.8z M23.5,21.3c0.3,0.2,0.6,0.1,0.6-0.3
          	v-8.5c0-0.3-0.2-0.8-0.6-1L5.7,1.4C5.4,1.2,5.2,1.3,5.2,1.6v8.5c0,0.3,0.2,0.8,0.6,1L23.5,21.3z M23.5,50.2c0.3,0.2,0.6,0.1,0.6-0.3
          	v-8.5c0-0.3-0.2-0.8-0.6-1L5.7,30.2c-0.3-0.2-0.6-0.1-0.6,0.3V39c0,0.3,0.2,0.8,0.6,1L23.5,50.2z M29.3,35.8l23-13.1
          	c0.3-0.2,0.6-0.6,0.6-1v-8.5c0-0.3-0.2-0.5-0.6-0.3L29.3,26c-0.3,0.2-0.6,0.6-0.6,1v8.5C28.8,35.8,29,36,29.3,35.8z M29.3,21.3
          	l17.8-10.2c0.3-0.2,0.6-0.6,0.6-1V1.6c0-0.3-0.2-0.5-0.6-0.3L29.3,11.6c-0.3,0.2-0.6,0.6-0.6,1v8.5C28.8,21.4,29,21.5,29.3,21.3z
          	 M29.3,50.2L47.1,40c0.3-0.2,0.6-0.6,0.6-1v-8.5c0-0.3-0.2-0.5-0.6-0.3L29.3,40.4c-0.3,0.2-0.6,0.6-0.6,1v8.5
          	C28.8,50.3,29,50.4,29.3,50.2z M87.8,45.1c0,2.5,1.4,4.6,5.3,4.6c3.9,0,5.3-2.1,5.3-4.6v-7.5h-2.8v6.9c0,1.6-0.7,2.7-2.5,2.7
          	c-1.9,0-2.5-1.1-2.5-2.7v-6.9h-2.8V45.1z M124.1,37.6h-2.4V45l0.1,0.8h0l-5.6-8.2h-2.9v11.7h2.4v-7.1l-0.1-1h0.1l5.6,8.1h2.9V37.6z
          	 M139.1,49.4h2.8V37.6h-2.8V49.4z M163.4,49.4l4.3-11.7h-3l-3.1,9.2h0l-3.2-9.2h-3l4.3,11.7H163.4z M189.8,47.2h-5.7v-2.7h4.8v-2.1
          	h-4.8v-2.6h5.4v-2.2h-8.2v11.7h8.5V47.2z M207.7,39.7c1.6,0,2.4,0.7,2.4,2c0,1.4-0.7,2-2.3,2h-1.1v-4H207.7z M212.9,41.6
          	c0-2.6-1.7-4-4.8-4h-4.1v11.7h2.6v-3.8h1.4l2.5,3.8h3.2l-2.9-4.3C212,44.5,212.9,43.4,212.9,41.6z M235.5,38.6c0,0-1-1.3-3.8-1.3
          	c-2.7,0-4.4,1.5-4.4,3.6c0,4,6,3.2,6,5.2c0,0.8-0.5,1.3-1.8,1.3c-2,0-3.4-1.4-3.4-1.4l-1.4,1.8c0,0,1.2,1.9,4.6,1.9
          	c2.9,0,4.6-1.4,4.6-3.8c0-3.7-6-3-6-5.1c0-0.9,0.6-1.4,1.8-1.4c0.8,0,2.8,1.1,2.8,1.1L235.5,38.6z M250.1,49.4h2.8V37.6h-2.8V49.4z
          	 M275.8,37.6h-9.3v2.2h3.2v9.5h2.8v-9.5h3.2V37.6z M293.9,42.8l-2.9-5.2H288l4.6,7.5v4.3h2.8v-4.3l4.6-7.5h-3.1L293.9,42.8
          	L293.9,42.8z M112.8,30.5V2.2h-6.1v17.4L93.5,2.2h-5.7v28.2h6.1V12.5l13.7,17.9H112.8z M133.1,30.9c5.4,0,8.7-1.9,11.6-5l-4-4
          	c-2.2,2-4.2,3.3-7.4,3.3c-4.8,0-8.2-4-8.2-8.9v-0.1c0-4.8,3.4-8.8,8.2-8.8c2.8,0,5,1.2,7.2,3.2l4-4.6c-2.6-2.6-5.8-4.4-11.1-4.4
          	c-8.7,0-14.7,6.6-14.7,14.6v0.1C118.7,24.5,124.8,30.9,133.1,30.9z M164.8,30.9c5.4,0,8.7-1.9,11.6-5l-4-4c-2.2,2-4.2,3.3-7.4,3.3
          	c-4.8,0-8.2-4-8.2-8.9v-0.1c0-4.8,3.4-8.8,8.2-8.8c2.8,0,5,1.2,7.2,3.2l4-4.6c-2.6-2.6-5.8-4.4-11.1-4.4c-8.7,0-14.7,6.6-14.7,14.6
          	v0.1C150.3,24.5,156.5,30.9,164.8,30.9z M190.6,13.4c2.6,0,4.2,1.9,4.6,4.6H186C186.4,15.2,188.1,13.4,190.6,13.4z M201.1,21.8
          	c0-0.6,0.1-0.9,0.1-1.5v-0.1c0-6.1-3.3-11.7-10.5-11.7c-6.3,0-10.7,5.1-10.7,11.3v0.1c0,6.6,4.8,11.2,11.3,11.2c3.9,0,6.8-1.5,8.8-4
          	l-3.5-3.1c-1.7,1.6-3.2,2.2-5.2,2.2c-2.7,0-4.7-1.5-5.3-4.2H201.1z M225.8,30.5v-14c0-5-2.7-8-7.3-8c-3.1,0-4.9,1.7-6.3,3.5V8.8H206
          	v21.6h6.1V18.4c0-2.9,1.5-4.4,3.8-4.4c2.3,0,3.7,1.5,3.7,4.4v12.1H225.8z M239.6,30.8c2.1,0,3.5-0.5,4.8-1.2v-4.9
          	c-0.9,0.5-1.9,0.8-3,0.8c-1.4,0-2-0.7-2-2.1v-9.2h5.1V8.8h-5.1V1l-6.1,3.4v4.4h-2.6v5.2h2.6v10.2C233.3,29.3,235.8,30.8,239.6,30.8z
          	 M263.9,14.8V8.4c-3.6-0.2-5.6,1.8-6.9,4.8V8.8h-6.1v21.6h6.1v-8c0-5.2,2.5-7.6,6.6-7.6H263.9z M281.5,22.8c0,2.2-1.9,3.8-4.8,3.8
          	c-2,0-3.3-1-3.3-2.6v-0.1c0-1.9,1.6-3,4.2-3c1.5,0,2.9,0.3,3.9,0.8V22.8z M287.3,30.5V17.9c0-5.8-2.9-9.3-9.6-9.3
          	c-3.7,0-6,0.7-8.4,1.7l1.5,4.7c2-0.7,3.6-1.2,6-1.2c3.1,0,4.6,1.4,4.6,4v0.4c-1.5-0.5-3.1-0.9-5.3-0.9c-5.1,0-8.7,2.2-8.7,6.9v0.1
          	c0,4.3,3.3,6.6,7.4,6.6c3,0,5-1.1,6.5-2.7v2.3H287.3z M300,30.5V1l-6.1,3.4v26H300z M68,51.2V0.6C68,0.3,67.8,0,67.5,0
          	c-0.3,0-0.6,0.3-0.6,0.6v50.7c0,0.3,0.3,0.6,0.6,0.6C67.8,51.8,68,51.5,68,51.2z"
  />
              </svg>
