<svg
  id="logo-yale-alumni"
  class="logo-yale-alumni"
  version="1.1"
  xmlns="http://www.w3.org/2000/svg"
  xmlns:xlink="http://www.w3.org/1999/xlink"
  x="0px"
  y="0px"
  viewBox="0 0 200 29.4"
  enable-background="new 0 0 200 29.4"
  xml:space="preserve"
>
                <path
    fill="#FFFFFF"
    d="M49.8,27.9c-1.7-0.1-2.5-0.4-2.9-1.3V2.2l1.2-1.5L47.9,0l-7.6,1.9v0.8
            	C43.1,3,43.3,3.6,43.3,5v21.6c-0.3,0.7-0.9,1.1-2.8,1.3v1h9.3V27.9z M112.5,27.9c-1.7-0.1-2.5-0.4-2.9-1.3V2.2l1.2-1.5L110.6,0
            	l-7.6,1.9v0.8C105.8,3,106,3.6,106,5v21.6c-0.4,0.8-0.8,1.1-2.4,1.3v1h8.9V27.9z M197.6,3.7c0-1.1-1-2.3-2.3-2.3
            	c-1.4,0-2.4,1.2-2.4,2.3c0,1,1,2.2,2.4,2.2C196.6,5.9,197.6,4.8,197.6,3.7L197.6,3.7z M102.7,27.9c-1.4-0.1-2.7-0.5-3.1-1.9
            	c-1.3-3.5-2.3-6.4-3.3-9.3c-1.2-3.5-2.3-7-3.7-11.4C92.2,3.8,92.1,3.3,92,2h-4.3c-0.1,0.8,0,1.3-0.5,2.8c-1,2.9-2.6,7.4-4.3,12.1
            	c-1.3,3.3-2.6,6.8-3.8,9.5c-0.9,1.1-2,1.4-3.8,1.5v1.1h10.6v-1.1c-1.9-0.1-3.6-0.8-4.1-1.9l2.9-8.1h8.2l3,8.6c-0.4,0.9-2,1.3-4,1.3
            	v1.1h11.1V27.9z M27.3,2.3h-10v1.1c2.2,0.1,3.1,0.6,3.8,1.1l-6.4,11.2L8.2,4.4c0.6-0.5,1.3-0.9,3.5-1l0-1.1H0l0,1.1
            	c2.3,0.2,3.5,0.8,4.7,2.8l7,11.9v8.1c-0.6,1.3-3,1.5-4.9,1.6v1.1h13.5v-1.1c-1.9-0.1-3.9-0.3-4.7-2.2v-7.8l6.9-11.6
            	c1.1-1.9,2.6-2.7,4.8-2.8V2.3z M85.1,16l3-8.6l0.6-2.3h0.1l0.6,2.3l2.7,8.6H85.1z M200,27.8c-2.1-0.2-2.3-0.4-2.8-1.3V10.8h-0.5
            	l-5.7,2v0.8c2.1,0.5,2.7,1.3,2.7,2.3v10.8c-0.4,0.7-0.8,1.1-2.8,1.3v1h9.1V27.8z M189.9,27.7c-1.9-0.2-2.7-0.2-3.5-0.8V16.6
            	c0-3.4-1.1-5.7-4.8-5.7c-1.5,0-4.5,1.5-6.4,2.9v-3h-0.6l-5.5,2v0.8c2,0.5,2.6,1.5,2.6,2.3v10.7c-0.4,0.7-0.7,1.1-2.7,1.3v1h9v-1
            	c-2.1-0.2-2.3-0.4-2.8-1.3V14.7c1.1-0.7,2.8-1.3,3.9-1.3c2.1,0,3.6,1.9,3.6,4.2v9c-0.3,0.7-0.5,1.1-2.5,1.3v1h9.7V27.7z M40.2,25.6
            	c-0.8,0.8-1.5,1.2-2.1,1.2c-0.8,0-1.8-0.4-1.7-2.1l0.1-8.8c0-3.1-1.3-5.1-5.1-5.1c-2,0-6.1,1.5-7.4,5.2v0.4l3.8-0.6
            	c0.1-2.1,1.2-3.5,2.3-3.5c1.9,0,2.8,1.8,2.8,3.7v3.1l-8.3,3c-0.6,1-0.9,2.2-0.9,3.3c0,2.4,1.9,3.8,4.2,3.8c1.8,0,3.6-1.1,5-2.6
            	c0.1,1.1,1.2,2.6,3.4,2.6c1.5,0,3.1-1.3,4-2.4V25.6z M134.5,26.4l-2.8,0.5c-0.4-0.2-0.8-0.8-0.8-1.6V10.8h-0.6l-6.3,1.1v0.9
            	c2.8,0.3,3.4,0.8,3.4,2.4v10.3c-1.2,0.6-2.4,1.3-3.9,1.3c-2.4,0-3.6-1.9-3.6-4l0-12.1h-0.6l-5.7,1.1v0.9c2,0.5,2.7,1,2.7,2.4v8.4
            	c0,3.3,1,5.6,4.7,5.6c1.6,0,4.5-1.5,6.3-2.8l0.2,2.8h0.6l6.3-2V26.4z M142.2,10.8h-0.6l-5.9,2v0.8c1.8,0.5,3,1.5,3,2.3v10.7
            	c-0.4,0.7-1.3,1.1-3.3,1.3v1h9.5v-1c-2-0.2-2.3-0.4-2.7-1.3V14.8c1.1-0.7,2.8-1.4,3.9-1.4c2.1,0,3.6,2,3.6,4.2v9
            	c-0.3,0.7-0.5,1.1-2.5,1.3v1h8.7v-1c-1.9-0.1-2.3-0.6-2.6-1.3v-10c0-0.6,0-1.2-0.1-1.8c1.2-0.7,3.1-1.4,4.1-1.4c2.1,0,3.5,2,3.5,4.2
            	l0.1,9c-0.3,0.7-0.5,1.1-2.5,1.3v1c0.6,0,3.3-0.1,4.3-0.1c1.6,0,4.4,0,5.3,0.1v-1c-1.8-0.2-2.6-0.3-3.5-1l-0.1-10.3
            	c0-3.4-1.4-5.7-4.6-5.7c-1.5,0-4.9,1.8-6.8,3.2c-0.5-2-1.8-3.2-4.4-3.2c-1.5,0-4.5,1.5-6.4,2.9V10.8z M67,24.6
            	c-1.7,1.4-2.8,2.2-4.9,2.2c-3.5,0-6.2-2.8-6.2-7.1c0-0.9,0-1.7,0.1-2.1l11.3,0.1v-0.8c0-3.7-2.3-6.1-6.4-6.1c-5.1,0-8.8,4-8.8,10
            	c0,4.8,3.4,8.3,7.8,8.3c3.4,0,5.4-1.4,7.8-3.6L67,24.6z M56.2,16.5c0.5-2.6,2-4.3,4-4.3c1.9,0,3.3,2,3.3,4.2L56.2,16.5z M32.7,25.8
            	c-1.1,0.9-1.8,1.3-3.1,1.3c-1.4,0-2.1-1.3-2.1-2.5c0-0.9,0.1-1.5,0.3-2.2c1.2-0.6,3.8-1.8,4.9-2.3L32.7,25.8z"
  />
              </svg>
