<?xml version="1.0" encoding="UTF-8"?>
<svg width="35px" height="34px" viewBox="0 0 35 34" version="1.1" xmlns="http://www.w3.org/2000/svg" xmlns:xlink="http://www.w3.org/1999/xlink">
    <title>Visit my GitHub</title>
    <g id="Page-1" stroke="none" stroke-width="1" fill="none" fill-rule="evenodd">
        <g id="Visit-my-GitHub" transform="translate(1.000000, 1.000000)">
            <path d="M0,15.8547718 C0,24.6112944 7.27956838,31.7092755 16.2587956,31.7092755 C25.2385727,31.7092755 32.5177974,24.6112944 32.5177974,15.8547718 C32.5177974,7.09831624 25.2385727,0 16.2587956,0 C7.27956838,0 0,7.09831624 0,15.8547718 Z" id="bg" stroke="#191919" fill="#191919"></path>
            <path d="M6,16.2913488 C6,20.838116 8.94841773,24.6950026 13.0377916,26.0558108 C13.5526749,26.1505746 13.7403073,25.8328 13.7403073,25.5598803 C13.7403073,25.3153897 13.7314626,24.6684688 13.7264086,23.8099087 C10.86391,24.4315593 10.2599487,22.4301478 10.2599487,22.4301478 C9.79181555,21.241178 9.11709729,20.9246669 9.11709729,20.9246669 C8.18272621,20.2865906 9.18785426,20.2992258 9.18785426,20.2992258 C10.2207797,20.371878 10.7640922,21.3599486 10.7640922,21.3599486 C11.6820375,22.932396 13.172988,22.4781615 13.75926,22.2147181 C13.8527603,21.550108 14.1187307,21.0965052 14.4124985,20.8393795 C12.1274274,20.5797267 9.72484914,19.696528 9.72484914,15.7530904 C9.72484914,14.6298235 10.1260159,13.7106146 10.7843084,12.9916732 C10.678173,12.7313887 10.3250199,11.6845645 10.8853898,10.2681616 C10.8853898,10.2681616 11.7490039,9.9914513 13.7150369,11.3231986 C14.5356914,11.0945019 15.416363,10.9807854 16.2913488,10.9763631 C17.1657028,10.9807854 18.0457426,11.0945019 18.8676606,11.3231986 C20.8324301,9.9914513 21.6947807,10.2681616 21.6947807,10.2681616 C22.2564142,11.6845645 21.9032611,12.7313887 21.7977574,12.9916732 C22.4573134,13.7106146 22.8553214,14.6298235 22.8553214,15.7530904 C22.8553214,19.7066362 20.4489526,20.5765679 18.1569321,20.8311666 C18.5258792,21.1489412 18.8550255,21.7769093 18.8550255,22.7365508 C18.8550255,24.1125212 18.8423903,25.2225211 18.8423903,25.5598803 C18.8423903,25.8353271 19.0281274,26.1556287 19.54996,26.0551791 C23.6361751,24.6912121 26.5820658,20.8368524 26.5820658,16.2913488 C26.5820658,10.607416 21.974018,6 16.2900853,6 C10.6080478,6 6,10.607416 6,16.2913488 Z" id="github-logo" fill="#FFFFFE"></path>
        </g>
    </g>
</svg>
