<?xml version="1.0" encoding="utf-8"?>
<!-- Generator: Adobe Illustrator 19.1.0, SVG Export Plug-In . SVG Version: 6.00 Build 0)  -->
<svg version="1.1" id="Layer_1" xmlns="http://www.w3.org/2000/svg" xmlns:xlink="http://www.w3.org/1999/xlink" x="0px" y="0px"
	 viewBox="884.3 -52.9 1951.4 905.8" style="enable-background:new 884.3 -52.9 1951.4 905.8;" xml:space="preserve">
<g>
	<path d="M2143.4,9.2v-49.5h-198v271.8h198v-44.8h-142.9v-73.8h125.2V64.3h-125.2V9.2H2143.4z M2088.3,259.5v104.6H1980V259.5h-56
		v270.8h56V408.9h108.4v121.4h55.1V259.5H2088.3L2088.3,259.5z M2143.4,606.9v-48.5h-198v275.5h198v-49.5h-142.9v-72.9h125.2v-44.8
		h-125.2v-59.8L2143.4,606.9L2143.4,606.9z M1913.7-40.3h-55.1V64.3h-108.3V-40.3h-55.1v271.8h55.1V110h108.3v121.4h55.1V-40.3z
		 M1458-40.3V9.2h84v222.3h55.1V9.2h84v-49.5H1458z M1284.3,252c-86.9,0-132.6,49.5-132.6,142.9c0,98.1,45.8,146.6,132.6,146.6
		s131.7-48.6,131.7-146.6C1415.9,301.5,1371.1,252,1284.3,252z M1211.4,394.9c0-62.6,24.3-93.4,72.8-93.4
		c52.3,0,76.6,30.8,76.6,93.4c0,66.3-24.3,98.1-76.6,98.1C1235.7,492.9,1211.4,461.2,1211.4,394.9z M1072.3,259.5v191.4L963.9,259.5
		h-58.8v270.8h52.3V339.8l111.1,190.5h58.8V259.5H1072.3z M1329.1,670.4v-63.5h139.1v-48.5H1274v275.5h55.1V718.9h122.3v-48.6
		L1329.1,670.4L1329.1,670.4z M1903.4,308v-48.6h-222.3V308h83.1v222.3h56V308H1903.4L1903.4,308z M1558.8,426.6
		c17.7,0,31.8,2.8,38.3,10.3l10.3,93.4h62.6v-6.5c-6.5-3.7-10.3-20.5-10.3-52.3c0-38.3-14-58.8-34.6-69.1c28-11.2,42-31.8,42-66.3
		c0-48.6-28-76.6-86.9-76.6h-136.3v270.8h56V426.6H1558.8z M1500,380.9V308h69.1c28,0,42,10.3,42,34.6c0,24.3-14,38.3-44.8,38.3
		L1500,380.9L1500,380.9z M1597.1,558.3h-66.3l-97.1,275.5h58.8L1514,774h100.9l16.8,59.8h59.8L1597.1,558.3L1597.1,558.3z
		 M1562.6,620.9l34.6,108.4H1528L1562.6,620.9L1562.6,620.9z M1868.9,648.9h55.1c-2.8-24.3-10.3-44.8-27.1-62.6
		c-24.3-20.5-52.3-34.6-90.6-34.6s-66.3,14-90.6,38.3c-20.5,24.3-34.6,58.8-34.6,104.6c0,97.1,41.1,145.7,121.4,145.7
		c70,0,108.3-34.6,121.4-100.8h-55.1c-7.5,31.7-31.8,48.6-62.6,48.6c-45.8,0-66.3-30.8-66.3-90.6c0-65.4,20.5-97.1,66.3-97.1
		C1837.1,600.3,1854.9,618.1,1868.9,648.9L1868.9,648.9z M1175.9,830.1h0.9H1175.9z M1176.9,830.1c9.3,0,16.8-3.7,22.4-8.4
		c4.7-5.6,8.4-13.1,8.4-23.3c0-11.2-3.7-18.7-8.4-23.4c-5.6-4.7-13.1-7.5-22.4-7.5h-0.9c-11.2,0-18.7,2.8-23.3,7.5
		c-4.7,4.7-7.5,12.1-7.5,23.4v0.9c0,9.4,2.8,16.8,7.5,22.4c4.7,4.7,12.2,8.4,23.3,8.4L1176.9,830.1L1176.9,830.1z M1175.9,837.5
		c-13.1,0-22.4-4.7-29-11.2c-6.5-6.5-9.3-15.9-9.3-27.1v-0.9c0-13.1,2.8-22.4,9.3-29c6.5-6.5,15.9-9.4,29-9.4h0.9
		c11.2,0,20.5,2.8,27.1,9.4c6.5,6.5,11.2,15.9,11.2,29c0,12.1-4.7,21.5-11.2,28c-7.2,7.2-16.9,11.3-27.1,11.2H1175.9z M1179.7,794.6
		h0.9c3.7,0,5.6-1.9,5.6-6.5v-0.9c0,0-0.9,0-0.9-0.9c-0.9-0.9-2.8-0.9-5.6-0.9h-10.3v9.4L1179.7,794.6L1179.7,794.6L1179.7,794.6z
		 M1186.2,801.1l7.5,9.4c0.9,1.9,0,3.7-0.9,4.7c-1.9,1.9-4.7,0.9-5.6,0l-9.3-13.1h-8.4v10.3c0,1.9-1.9,3.7-3.7,3.7
		c-1.9,0-3.7-1.9-3.7-3.7v-30.8c0-1.9,1.9-3.7,3.7-3.7h14.9c3.7,0,7.5,0.9,9.3,2.8c0.9,0.9,1.9,0.9,1.9,1.9c1.9,1.9,1.9,3.7,1.9,5.6
		C1193.7,795.5,1191.8,799.2,1186.2,801.1L1186.2,801.1z M2181.7-40.3c173.7,0,324.1,63.5,445.5,184.9
		c125.1,125.1,187.7,274.6,187.7,449.2v240h-254V586.3c0-97.1-34.6-181.2-104.6-250.3c-16.8-17.7-34.6-31.8-55.1-45.8
		c-56-38.3-122.3-55.1-191.4-55.1h-28L2181.7-40.3L2181.7-40.3L2181.7-40.3z M2536.6,833.8h-198V642.3c0-31.7-10.3-56-31.7-76.6
		c-20.5-21.5-48.6-31.7-76.6-31.7h-48.6V259.5h28c72.8,0,135.4,20.5,191.4,62.6c14,6.5,28,20.5,38.3,30.8
		c66.3,66.3,97.1,142.9,97.1,233.5V833.8z M2314.3,833.8h-132.6V558.3h48.6c21.5,0,42,7.4,59.8,24.3c14,14,24.3,35.5,24.3,59.8
		V833.8z"/>
</g>
</svg>
